# xmcd
#
# Track frame offsets:
#	150
#	17305
#	44877
#	69757
#	96922
#	120525
#	138965
#	155145
#	178725
#	193685
#	210057
#	231080
#	262210
#	292985
#
# Disc length: 4168 seconds
#
# Revision: 1
# Processed by: cddbd v1.4PL0 Copyright (c) Steve Scherf et al.
# Submitted via: audiograbber 1.80
#
DISCID=c410460e
DTITLE=Curtis Mayfield - Very best of CD 2
DYEAR=1900
DGENRE=
TTITLE0=Sweet exorcist
TTITLE1=Kung fu
TTITLE2=Make me belive in you
TTITLE3=Mother's son
TTITLE4=So in love
TTITLE5=Love to the people
TTITLE6=Get a little bit
TTITLE7=Show me love
TTITLE8=Never say you can't survive
TTITLE9=You are you are
TTITLE10=Between you baby and me
TTITLE11=You're so good to me
TTITLE12=Tripping out
TTITLE13=Ain't no love lost
EXTD=
EXTT0=1974
EXTT1=1974
EXTT2=1974
EXTT3=1975
EXTT4=1975
EXTT5=1975
EXTT6=1976
EXTT7=1977
EXTT8=1977
EXTT9=1978
EXTT10=1979
EXTT11=1979
EXTT12=1980
EXTT13=1980
PLAYORDER=
